<svg width="1329" height="777" viewBox="0 0 1329 777" fill="none" xmlns="http://www.w3.org/2000/svg">
<path opacity="0.5" d="M656.821 0L-11 388.5L661.178 777L1329 388.5L656.821 0ZM1326.71 388.5L1296.1 406.273L1265.28 388.5L1294.69 370.073L1295.89 370.727L1326.71 388.5ZM943.295 166.936L911.598 185.363L879.792 203.791L848.094 222.218L816.397 240.645L784.7 259.073L753.003 277.5L721.305 295.927L689.608 314.355L657.911 332.782L626.213 351.209L594.407 369.637L562.274 388.5L530.577 406.927L498.88 425.355L467.182 443.782L435.485 462.209L403.788 480.637L372.091 499.064L340.829 517.273L341.483 516.946L310.439 499.282L341.047 481.509L371.873 499.282L373.071 498.628L342.245 480.855L372.853 463.082L403.679 480.855L404.877 480.2L374.051 462.427L404.659 444.654L435.485 462.427L436.683 461.773L405.857 444L436.465 426.227L467.291 444L468.49 443.346L437.664 425.573L468.272 407.8L499.098 425.573L500.296 424.918L469.47 407.145L500.078 389.372L530.904 407.145L532.102 406.491L500.949 388.5L531.557 370.727L562.383 388.5L563.581 387.846L532.647 370.073L563.255 352.3L594.081 370.073L595.279 369.418L564.453 351.645L595.061 333.872L625.887 351.645L627.085 350.991L596.259 333.218L626.867 315.445L657.693 333.218L658.891 332.564L628.065 314.791L658.673 297.018L689.499 314.791L690.697 314.137L659.871 296.363L690.479 278.59L721.305 296.363L722.504 295.709L691.678 277.936L722.286 260.163L753.112 277.936L754.31 277.282L723.484 259.509L754.092 241.736L784.918 259.509L786.116 258.855L754.854 240.754L785.462 222.981L816.288 240.754L817.486 240.1L786.661 222.327L817.269 204.554L848.094 222.327L849.293 221.673L818.467 203.9L849.075 186.127L879.901 203.9L881.099 203.246L850.273 185.473L880.881 167.699L911.707 185.473L912.905 184.818L882.079 167.045L911.489 148.618L912.687 149.272L943.295 166.936ZM-8.71256 388.5L21.8955 370.727L52.7213 388.5L53.9195 387.846L23.0936 370.073L53.7017 352.3L84.5276 370.073L85.7257 369.418L54.8999 351.645L85.5079 333.872L116.334 351.645L117.532 350.991L86.7061 333.218L117.314 315.445L148.14 333.218L149.338 332.564L118.512 314.791L149.12 297.018L179.946 314.791L181.144 314.137L150.318 296.363L180.927 278.59L211.752 296.363L212.951 295.709L182.125 277.936L212.733 260.163L243.559 277.936L244.757 277.282L213.495 259.182L244.103 241.409L274.929 259.182L276.127 258.527L245.301 240.754L275.909 222.981L306.735 240.754L307.934 240.1L276.999 222.327L307.607 204.554L338.433 222.327L339.631 221.673L308.805 203.791L339.413 186.018L370.239 203.791L371.437 203.137L340.502 185.363L371.11 167.59L401.936 185.363L403.134 184.709L372.308 166.936L402.916 149.163L433.742 166.936L434.941 166.282L404.115 148.509L434.614 130.627L465.44 148.4L466.638 147.746L435.812 129.973L466.42 112.199L497.246 129.973L498.444 129.318L467.509 111.436L498.117 93.6631L528.943 111.436L530.141 110.782L499.207 93.0088L529.815 75.2358L560.64 93.0088L561.839 92.3546L531.013 74.5815L561.621 56.8084L592.447 74.5815L593.645 73.9273L562.819 56.1542L593.427 38.3811L624.144 56.0452L625.342 55.391L594.516 37.6179L625.124 19.8448L655.95 37.6179L657.148 36.9637L626.322 19.1906L656.93 1.41749L687.756 19.1906L656.059 37.6179L624.144 56.0452L592.447 74.4725L560.64 93.0088L528.834 111.436L497.137 129.863L465.44 148.291L433.742 166.718L401.936 185.363L370.239 203.791L338.433 222.327L306.735 240.754L275.038 259.182L243.341 277.609L211.643 296.036L179.728 314.682L148.031 333.109L116.334 351.536L84.5276 369.964L52.8303 388.391L23.4204 406.818L22.2222 406.164L-8.71256 388.5ZM86.0525 443.237L54.1374 424.809L23.3115 407.036L53.9195 389.263L84.7454 407.036L85.9436 406.382L55.1177 388.609L85.7257 370.836L116.552 388.609L117.75 387.955L86.9239 370.182L117.532 352.409L148.358 370.182L149.556 369.528L118.73 351.754L149.338 333.981L180.164 351.754L181.362 351.1L150.536 333.327L181.144 315.554L211.97 333.327L213.168 332.673L182.343 314.9L212.951 297.127L243.776 314.9L244.975 314.246L214.149 296.473L244.321 278.372L275.147 296.145L276.345 295.491L245.519 277.718L276.127 259.945L306.953 277.718L308.151 277.064L277.326 259.291L307.934 241.518L338.759 259.291L339.958 258.637L309.132 240.863L339.74 223.09L370.566 240.863L371.764 240.209L340.72 222.327L371.328 204.554L402.154 222.327L403.352 221.673L372.526 203.791L403.025 186.018L433.851 203.791L435.049 203.137L404.224 185.363L434.832 167.59L465.657 185.363L466.856 184.709L436.03 166.936L466.638 149.163L497.464 166.936L498.662 166.282L467.836 148.509L498.444 130.736L529.27 148.509L530.468 147.855L499.642 130.082L530.25 112.308L561.076 130.082L562.274 129.427L531.231 111.436L561.839 93.6631L592.555 111.436L593.754 110.782L562.928 93.0088L593.536 75.2358L624.362 93.0088L625.56 92.3546L594.734 74.5815L625.233 56.8084L656.059 74.5815L657.257 73.9273L626.431 56.1542L657.039 38.3811L687.865 56.1542L689.063 55.5L658.238 37.7269L687.647 19.2996L688.846 19.9538L719.672 37.7269L687.974 56.1542L656.168 74.5815L624.362 93.0088L592.555 111.436L560.858 129.863L529.161 148.291L497.464 166.718L465.766 185.145L434.069 203.573L402.372 222L370.348 240.754L338.65 259.182L306.953 277.609L275.256 296.036L243.559 314.464L211.861 332.891L180.164 351.318L148.14 370.073L116.334 388.5L84.6365 406.927L55.2266 425.355L85.8347 407.582L116.661 425.355L117.859 424.7L87.0328 406.927L117.641 389.154L148.467 406.927L149.665 406.273L118.73 388.5L149.338 370.727L180.164 388.5L181.362 387.846L150.536 370.073L181.144 352.3L211.97 370.073L213.168 369.418L182.343 351.645L212.951 333.872L243.776 351.645L244.975 350.991L214.149 333.218L244.757 315.445L275.583 333.218L276.781 332.564L245.955 314.791L276.563 297.018L307.389 314.791L308.587 314.137L277.761 296.363L308.042 278.372L338.868 296.145L340.066 295.491L309.241 277.718L339.849 259.945L370.675 277.718L371.873 277.064L340.938 259.182L371.546 241.409L402.372 259.182L403.57 258.527L372.744 240.754L403.352 222.981L434.178 240.754L435.376 240.1L404.55 222.327L435.158 204.554L465.984 222.327L467.182 221.673L436.357 203.9L466.965 186.127L497.79 203.9L498.989 203.246L468.163 185.473L498.771 167.699L529.597 185.473L530.795 184.818L499.969 167.045L530.577 149.272L561.403 167.045L562.601 166.391L531.775 148.618L562.056 130.627L592.882 148.4L594.081 147.746L563.146 129.973L593.754 112.199L624.58 129.973L625.778 129.318L594.952 111.436L625.56 93.6631L656.386 111.436L657.584 110.782L626.649 93.0088L657.257 75.2358L687.974 93.0088L689.172 92.3546L658.346 74.5815L688.954 56.8084L719.78 74.5815L720.979 73.9273L690.153 56.1542L719.562 37.7269L720.761 38.3811L751.587 56.1542L719.889 74.5815L687.974 93.0088L656.277 111.436L624.58 129.863L592.882 148.291L561.185 166.718L529.488 185.145L497.79 203.573L466.093 222L434.396 240.427L402.59 258.855L370.892 277.282L339.195 295.709L307.498 314.137L275.801 332.564L244.103 350.991L212.406 369.418L180.055 388.5L148.249 406.927L116.552 425.355L87.1418 443.782L117.75 426.009L148.576 443.782L149.774 443.128L118.948 425.355L149.556 407.582L180.382 425.355L181.58 424.7L150.754 406.927L181.362 389.154L212.188 406.927L213.386 406.273L182.451 388.5L213.06 370.727L243.776 388.5L244.975 387.846L214.149 370.073L244.757 352.3L275.583 370.073L276.781 369.418L245.955 351.645L276.563 333.872L307.389 351.645L308.587 350.991L277.761 333.218L308.26 315.336L339.086 333.109L340.284 332.455L309.35 314.682L339.958 296.909L370.783 314.682L371.982 314.027L341.156 296.254L371.764 278.481L402.59 296.254L403.788 295.6L372.962 277.827L403.57 260.054L434.396 277.827L435.594 277.173L404.768 259.4L435.376 241.627L466.202 259.4L467.4 258.746L436.574 240.972L467.182 223.199L498.008 240.972L499.207 240.318L468.381 222.545L498.989 204.772L529.815 222.545L531.013 221.891L500.187 204.118L530.468 186.018L561.294 203.791L562.492 203.137L531.666 185.363L562.274 167.59L593.1 185.363L594.298 184.709L563.472 166.936L594.081 149.163L624.906 166.936L626.105 166.282L595.279 148.509L625.887 130.736L656.713 148.509L657.911 147.855L627.085 130.082L657.693 112.308L688.519 130.082L689.717 129.427L658.564 111.436L689.172 93.6631L719.998 111.436L721.196 110.782L690.371 93.0088L720.979 75.2358L751.695 93.0088L752.894 92.3546L722.068 74.5815L751.478 56.1542L752.676 56.8084L783.502 74.5815L751.695 93.0088L719.998 111.436L688.301 129.863L656.604 148.291L624.906 166.718L593.209 185.145L561.512 203.573L529.815 222L497.79 240.754L466.093 259.182L434.287 277.609L402.59 296.036L370.892 314.464L339.195 332.891L307.498 351.318L275.583 370.073L243.776 388.5L212.079 406.927L180.273 425.355L148.576 443.782L119.166 462.209L117.968 461.555L86.0525 443.237ZM309.676 572.555L277.761 554.019L245.846 535.591L213.931 517.164L181.907 498.628L149.992 480.2L119.166 462.427L149.774 444.654L180.6 462.427L181.798 461.773L150.972 444L181.58 426.227L212.406 444L213.604 443.346L182.778 425.573L213.386 407.8L243.994 425.464L245.193 424.809L214.367 407.036L244.975 389.263L275.801 407.036L276.999 406.382L246.064 388.5L276.672 370.727L307.498 388.5L308.696 387.846L277.87 370.073L308.478 352.3L339.304 370.073L340.502 369.418L309.676 351.645L340.284 333.872L371.11 351.645L372.308 350.991L341.483 333.218L372.091 315.445L402.916 333.218L404.115 332.564L373.289 314.791L403.897 297.018L434.723 314.791L435.921 314.137L405.095 296.363L435.703 278.59L466.529 296.363L467.727 295.709L436.901 277.936L467.509 260.163L498.335 277.936L499.533 277.282L468.381 259.182L498.989 241.409L529.815 259.182L531.013 258.527L500.187 240.754L530.795 222.981L561.621 240.754L562.819 240.1L531.993 222.327L562.601 204.554L593.427 222.327L594.625 221.673L563.799 203.9L594.407 186.127L625.233 203.9L626.431 203.246L595.605 185.473L626.213 167.699L657.039 185.473L658.238 184.818L627.412 167.045L658.02 149.272L688.41 166.936L689.608 166.282L658.782 148.509L689.39 130.736L720.216 148.509L721.414 147.855L690.588 129.973L721.087 112.199L751.913 129.973L753.112 129.318L722.286 111.436L752.894 93.6631L783.72 111.436L784.918 110.782L754.092 93.0088L783.502 74.5815L784.7 75.2358L815.417 93.0088L783.72 111.436L751.913 129.863L720.216 148.291L688.41 166.936L656.713 185.363L625.015 203.791L593.318 222.218L561.621 240.645L529.923 259.073L498.226 277.5L466.202 296.145L434.505 314.573L402.808 333L371.11 351.427L339.413 369.855L307.498 388.5L275.801 406.927L243.994 425.464L212.188 443.891L180.491 462.318L151.081 480.746L181.689 462.972L212.515 480.746L213.713 480.091L182.887 462.318L213.495 444.545L244.321 462.318L245.519 461.664L214.584 443.891L245.193 426.118L276.018 443.891L277.217 443.237L246.391 425.464L276.999 407.691L307.825 425.464L309.023 424.809L278.197 407.036L308.805 389.263L339.631 407.036L340.829 406.382L309.785 388.5L340.393 370.727L371.219 388.5L372.417 387.846L341.591 370.073L372.199 352.3L403.025 370.073L404.224 369.418L373.398 351.645L404.006 333.872L434.832 351.645L436.03 350.991L405.204 333.218L435.812 315.445L466.638 333.218L467.836 332.564L436.792 314.682L467.4 296.909L498.226 314.682L499.424 314.027L468.598 296.254L499.207 278.481L530.032 296.254L531.231 295.6L500.405 277.827L531.013 260.054L561.839 277.827L563.037 277.173L532.211 259.4L562.819 241.627L593.645 259.4L594.843 258.746L564.017 240.972L594.625 223.199L625.451 240.972L626.649 240.318L595.823 222.545L626.431 204.772L657.257 222.545L658.455 221.891L627.63 204.118L657.911 186.018L688.737 203.791L689.935 203.137L659 185.363L689.608 167.59L720.434 185.363L721.632 184.709L690.806 166.936L721.414 149.163L752.24 166.936L753.438 166.282L722.612 148.509L753.22 130.736L784.046 148.509L785.245 147.855L754.419 130.082L785.027 112.308L815.853 130.082L817.051 129.427L786.007 111.436L815.417 93.0088L816.615 93.6631L847.441 111.436L815.744 129.863L783.937 148.291L752.24 166.718L720.543 185.145L688.846 203.573L657.148 222L625.451 240.427L593.754 258.855L562.056 277.282L530.359 295.709L498.553 314.137L466.856 332.564L435.158 350.991L403.461 369.418L371.219 388.5L339.522 406.927L307.825 425.355L276.127 443.782L244.321 462.209L212.624 480.637L183.214 499.064L213.822 481.291L244.648 499.064L245.846 498.41L215.02 480.637L245.628 462.863L276.454 480.637L277.652 479.982L246.826 462.209L277.434 444.436L308.26 462.209L309.458 461.555L278.633 443.782L309.241 426.009L340.066 443.782L341.265 443.128L310.439 425.355L341.047 407.582L371.873 425.355L373.071 424.7L342.245 406.927L372.853 389.154L403.679 406.927L404.877 406.273L373.507 388.5L404.115 370.727L434.941 388.5L436.139 387.846L405.313 370.073L435.921 352.3L466.747 370.073L467.945 369.418L437.119 351.645L467.727 333.872L498.553 351.645L499.751 350.991L468.925 333.218L499.533 315.445L530.359 333.218L531.557 332.564L500.731 314.791L531.339 297.018L562.165 314.791L563.364 314.137L532.538 296.363L563.146 278.59L593.972 296.363L595.17 295.709L564.344 277.936L594.952 260.163L625.778 277.936L626.976 277.282L596.15 259.509L626.758 241.736L657.584 259.509L658.782 258.855L627.956 241.082L658.564 223.308L689.39 241.082L690.588 240.427L659.763 222.654L690.371 204.881L721.196 222.654L722.395 222L691.569 204.227L722.177 186.454L753.003 204.227L754.201 203.573L723.375 185.8L753.983 168.027L784.809 185.8L786.007 185.145L755.181 167.372L785.789 149.599L815.853 166.936L817.051 166.282L786.225 148.509L816.833 130.736L847.659 148.509L848.857 147.855L818.031 130.082L847.441 111.654L848.639 112.308L879.465 130.082L847.768 148.509L815.853 166.936L784.155 185.363L752.458 203.791L720.761 222.218L689.063 240.645L657.366 259.073L625.669 277.5L593.645 296.145L561.948 314.573L530.141 333L498.444 351.427L466.747 369.855L434.941 388.5L403.243 406.927L371.437 425.464L339.74 443.891L308.042 462.318L276.236 480.746L244.539 499.173L215.129 517.6L245.737 499.827L276.563 517.6L277.761 516.946L246.935 499.173L277.543 481.4L308.369 499.173L309.567 498.519L278.742 480.746L309.35 462.972L339.849 480.855L341.047 480.2L310.221 462.427L340.829 444.654L371.655 462.427L372.853 461.773L342.027 443.891L372.635 426.118L403.461 443.891L404.659 443.237L373.833 425.464L404.441 407.691L435.267 425.464L436.465 424.809L405.64 407.036L436.248 389.263L467.074 407.036L468.272 406.382L437.228 388.5L467.836 370.727L498.662 388.5L499.86 387.846L469.034 370.073L499.642 352.3L530.468 370.073L531.666 369.418L500.84 351.645L531.448 333.872L562.274 351.645L563.472 350.991L532.647 333.218L563.255 315.445L594.081 333.218L595.279 332.564L564.235 314.682L594.843 296.909L625.669 314.682L626.867 314.027L596.041 296.254L626.649 278.481L657.475 296.254L658.673 295.6L627.847 277.827L658.455 260.054L689.281 277.827L690.479 277.173L659.654 259.4L690.262 241.627L721.087 259.4L722.286 258.746L691.46 240.972L722.068 223.199L752.894 240.972L754.092 240.318L723.266 222.545L753.874 204.772L784.264 222.327L785.462 221.673L754.637 203.9L785.245 186.127L816.07 203.9L817.269 203.246L786.443 185.363L817.051 167.59L847.877 185.363L849.075 184.709L818.249 166.936L848.857 149.163L879.683 166.936L880.881 166.282L850.055 148.509L879.465 130.082L880.663 130.736L911.489 148.509L879.792 166.936L847.986 185.363L816.288 203.791L784.264 222.327L752.567 240.754L720.87 259.182L689.172 277.609L657.475 296.036L625.778 314.464L594.081 332.891L562.056 351.536L530.359 369.964L498.553 388.5L466.856 406.927L435.158 425.355L403.461 443.782L371.764 462.209L339.849 480.855L308.042 499.282L276.345 517.709L246.935 536.137L277.543 518.363L308.369 536.137L309.567 535.482L278.742 517.709L309.35 499.936L340.175 517.709L308.478 536.137L279.068 554.564L309.676 536.791L340.502 554.564L341.7 553.91L310.874 536.137L341.483 518.363L372.308 536.137L373.507 535.482L342.681 517.709L373.289 499.936L404.115 517.709L405.313 517.055L374.487 499.282L405.095 481.509L435.921 499.282L437.119 498.628L406.293 480.855L436.901 463.082L467.727 480.855L468.925 480.2L438.099 462.427L468.707 444.654L499.533 462.427L500.731 461.773L469.906 444L500.514 426.227L531.339 444L532.538 443.346L501.712 425.573L532.32 407.8L563.146 425.573L564.344 424.918L533.518 407.145L564.126 389.372L594.952 407.145L596.15 406.491L564.562 388.5L595.17 370.727L625.996 388.5L627.194 387.846L596.368 370.073L626.976 352.3L657.802 370.073L659 369.418L628.174 351.645L658.782 333.872L689.608 351.645L690.806 350.991L659.98 333.218L690.588 315.445L721.414 333.218L722.612 332.564L691.787 314.791L722.395 297.018L753.22 314.791L754.419 314.137L723.593 296.363L754.201 278.59L785.027 296.363L786.225 295.709L755.399 277.936L786.007 260.163L816.833 277.936L818.031 277.282L787.205 259.509L817.813 241.736L848.639 259.509L849.837 258.855L819.011 241.082L849.619 223.308L880.445 241.082L881.643 240.427L850.818 222.654L881.426 204.881L911.707 222.327L912.905 221.673L882.079 203.9L912.687 186.127L943.513 203.9L944.711 203.246L913.885 185.473L943.295 167.045L944.493 167.699L975.319 185.473L943.622 203.9L911.707 222.327L880.01 240.754L848.312 259.182L816.615 277.609L784.918 296.036L753.22 314.464L721.523 332.891L689.499 351.536L657.802 369.964L625.996 388.5L594.298 406.927L562.601 425.355L530.904 443.782L499.207 462.209L467.291 480.855L435.594 499.282L403.897 517.709L372.091 536.137L340.393 554.564L310.983 572.991L341.591 555.218L372.417 572.991L373.616 572.337L342.79 554.564L373.398 536.791L404.224 554.564L405.422 553.91L374.596 536.137L405.204 518.363L436.03 536.137L437.228 535.482L406.402 517.709L437.01 499.936L467.836 517.709L469.034 517.055L437.882 499.282L468.49 481.509L499.315 499.282L500.514 498.628L469.688 480.855L500.296 463.082L531.122 480.855L532.32 480.2L501.494 462.427L532.102 444.654L562.928 462.427L564.126 461.773L533.3 444L563.908 426.227L594.734 444L595.932 443.346L565.106 425.573L595.714 407.8L626.54 425.573L627.738 424.918L596.913 407.145L627.521 389.372L658.346 407.145L659.545 406.491L628.283 388.5L658.891 370.727L689.717 388.5L690.915 387.846L660.089 370.073L690.697 352.3L721.523 370.073L722.721 369.418L691.896 351.645L722.504 333.872L753.329 351.645L754.528 350.991L723.702 333.218L754.31 315.445L785.136 333.218L786.334 332.564L755.508 314.791L786.116 297.018L816.942 314.791L818.14 314.137L787.314 296.363L817.922 278.59L848.748 296.363L849.946 295.709L819.12 277.936L849.728 260.163L880.554 277.936L881.752 277.282L850.927 259.509L881.535 241.736L912.36 259.509L913.559 258.855L882.297 240.754L912.905 222.981L943.731 240.754L944.929 240.1L914.103 222.327L944.711 204.554L975.537 222.327L976.735 221.673L945.909 203.9L975.319 185.473L976.517 186.127L1007.34 203.9L975.646 222.327L943.84 240.754L912.143 259.182L880.118 277.718L848.421 296.145L816.724 314.573L785.027 333L753.329 351.427L721.632 369.855L689.717 388.5L657.911 406.927L626.213 425.355L594.516 443.782L562.819 462.209L531.122 480.637L499.424 499.064L467.727 517.491L435.703 536.246L403.897 554.673L372.199 573.1L342.79 591.528L341.591 590.873L309.676 572.555ZM501.385 683.337L469.47 664.801L437.555 646.373L405.64 627.946L373.616 609.41L342.79 591.637L373.398 573.863L404.224 591.637L405.422 590.982L374.596 573.209L405.204 555.436L436.03 573.209L437.228 572.555L406.293 554.673L436.901 536.9L467.727 554.673L468.925 554.019L438.099 536.246L468.707 518.472L499.533 536.246L500.731 535.591L469.906 517.818L500.514 500.045L531.339 517.818L532.538 517.164L501.712 499.391L532.32 481.618L563.146 499.391L564.344 498.737L533.518 480.964L564.126 463.191L594.952 480.964L596.15 480.309L565.324 462.536L595.932 444.763L626.758 462.536L627.956 461.882L597.13 444.109L627.738 426.336L658.564 444.109L659.763 443.455L628.501 425.464L659.109 407.691L689.935 425.464L691.133 424.809L660.307 407.036L690.915 389.263L721.741 407.036L722.939 406.382L692.004 388.5L722.612 370.727L753.438 388.5L754.637 387.846L723.811 370.073L754.419 352.3L785.245 370.073L786.443 369.418L755.617 351.645L786.225 333.872L817.051 351.645L818.249 350.991L787.423 333.218L818.031 315.445L848.857 333.218L850.055 332.564L819.229 314.791L849.837 297.018L880.663 314.791L881.861 314.137L850.709 296.145L881.317 278.372L912.143 296.145L913.341 295.491L882.515 277.718L913.123 259.945L943.949 277.718L945.147 277.064L914.321 259.291L944.929 241.518L975.755 259.291L976.953 258.637L946.127 240.863L976.735 223.09L1007.56 240.863L1008.76 240.209L977.934 222.436L1007.34 204.009L1008.54 204.663L1039.15 222.327L1007.45 240.754L975.646 259.182L943.949 277.609L912.251 296.036L880.554 314.464L848.857 332.891L817.16 351.318L785.462 369.746L753.438 388.5L721.741 406.927L689.935 425.355L658.238 443.782L626.54 462.209L594.843 480.637L563.146 499.064L531.448 517.491L499.751 535.918L468.054 554.346L436.248 572.773L404.55 591.2L375.14 609.628L405.749 591.855L436.574 609.628L437.773 608.973L406.947 591.2L437.555 573.427L468.381 591.2L469.579 590.546L438.753 572.773L469.361 555L500.187 572.773L501.385 572.119L470.559 554.346L501.167 536.573L531.993 554.346L533.191 553.692L502.365 535.918L532.973 518.145L563.799 535.918L564.997 535.264L534.172 517.491L564.78 499.718L595.605 517.491L596.804 516.837L565.978 499.064L596.586 481.291L627.412 499.064L628.61 498.41L597.784 480.637L628.392 462.863L659.218 480.637L660.416 479.982L629.59 462.209L660.198 444.436L691.024 462.209L692.222 461.555L661.396 443.782L692.004 426.009L722.83 443.782L724.029 443.128L693.203 425.355L723.811 407.582L754.637 425.355L755.835 424.7L725.009 406.927L755.617 389.154L786.443 406.927L787.641 406.273L755.726 388.5L786.334 370.727L817.16 388.5L818.358 387.846L787.532 370.073L818.14 352.3L848.966 370.073L850.164 369.418L819.338 351.645L849.946 333.872L880.772 351.645L881.97 350.991L851.144 333.218L881.752 315.445L912.578 333.218L913.776 332.564L882.951 314.791L913.559 297.018L944.384 314.791L945.583 314.137L914.757 296.363L945.365 278.59L976.191 296.363L977.389 295.709L946.563 277.936L977.171 260.163L1008 277.936L1009.2 277.282L978.369 259.509L1008.98 241.736L1039.8 259.509L1041 258.855L1009.74 240.754L1039.15 222.327L1040.35 222.981L1071.17 240.754L1039.48 259.182L1007.56 277.718L975.864 296.145L944.167 314.573L912.469 333L880.772 351.427L849.075 369.855L817.051 388.5L785.353 406.927L753.656 425.355L721.85 443.782L690.153 462.209L658.455 480.637L626.758 499.064L595.061 517.491L563.146 536.246L531.448 554.673L499.751 573.1L467.945 591.528L436.248 609.955L406.838 628.382L437.446 610.609L468.272 628.382L469.47 627.728L438.644 609.955L469.252 592.182L500.078 609.955L501.276 609.301L470.45 591.528L501.058 573.754L531.884 591.528L533.082 590.873L502.256 573.1L532.864 555.327L563.69 573.1L564.888 572.446L533.736 554.673L564.344 536.9L595.17 554.673L596.368 554.019L565.542 536.246L596.15 518.472L626.976 536.246L628.174 535.591L597.348 517.818L627.956 500.045L658.782 517.818L659.98 517.164L629.154 499.391L659.763 481.618L690.588 499.391L691.787 498.737L660.961 480.964L691.569 463.191L722.395 480.964L723.593 480.309L692.767 462.536L723.375 444.763L754.201 462.536L755.399 461.882L724.573 444.109L755.181 426.336L786.007 444.109L787.205 443.455L755.944 425.464L786.552 407.691L817.378 425.464L818.576 424.809L787.75 407.036L818.358 389.263L849.184 407.036L850.382 406.382L819.447 388.5L850.055 370.727L880.881 388.5L882.079 387.846L851.253 370.073L881.861 352.3L912.687 370.073L913.885 369.418L883.06 351.645L913.668 333.872L944.493 351.645L945.692 350.991L914.866 333.218L945.474 315.445L976.3 333.218L977.498 332.564L946.672 314.791L977.28 297.018L1008.11 314.791L1009.3 314.137L978.151 296.145L1008.76 278.372L1039.59 296.145L1040.78 295.491L1009.96 277.718L1040.57 259.945L1071.39 277.718L1072.59 277.064L1041.76 259.291L1071.17 240.863L1072.37 241.518L1103.2 259.291L1071.5 277.718L1039.69 296.145L1008 314.573L976.3 333L944.602 351.427L912.905 369.855L880.772 388.5L849.075 406.927L817.378 425.355L785.68 443.782L753.765 462.427L722.068 480.855L690.371 499.282L658.673 517.709L626.976 536.137L595.279 554.564L563.581 572.991L531.557 591.637L499.751 610.064L468.054 628.491L438.644 646.918L469.252 629.145L500.078 646.918L501.276 646.264L470.45 628.491L501.058 610.718L531.884 628.491L533.082 627.837L502.147 610.064L532.755 592.291L563.581 610.064L564.78 609.41L533.954 591.637L564.562 573.863L595.388 591.637L596.586 590.982L565.76 573.209L596.368 555.436L627.194 573.209L628.392 572.555L597.566 554.782L628.174 537.009L659 554.782L660.198 554.128L629.372 536.355L659.98 518.581L690.806 536.355L692.004 535.7L661.178 517.927L691.787 500.154L722.612 517.927L723.811 517.273L692.985 499.5L723.593 481.727L754.419 499.5L755.617 498.846L724.355 480.855L754.963 463.082L785.789 480.855L786.987 480.2L756.161 462.427L786.769 444.654L817.595 462.427L818.794 461.773L787.968 444L818.576 426.227L849.402 444L850.6 443.346L819.774 425.573L850.382 407.8L881.208 425.573L882.406 424.918L851.58 407.145L882.188 389.372L913.014 407.145L914.212 406.491L883.168 388.5L913.776 370.727L944.602 388.5L945.801 387.846L914.975 370.073L945.583 352.3L976.409 370.073L977.607 369.418L946.563 351.536L977.171 333.763L1008 351.536L1009.2 350.882L978.369 333.109L1008.98 315.336L1039.8 333.109L1041 332.455L1010.18 314.682L1040.78 296.909L1071.61 314.682L1072.81 314.027L1041.98 296.254L1072.59 278.481L1103.42 296.254L1104.61 295.6L1073.79 277.827L1103.2 259.4L1104.4 260.054L1135.22 277.827L1103.52 296.254L1071.72 314.682L1040.02 333.109L1008.32 351.536L976.626 369.964L944.493 388.5L912.796 406.927L881.099 425.355L849.402 443.782L817.704 462.209L785.898 480.637L754.201 499.064L722.504 517.491L690.806 535.918L659.109 554.346L627.412 572.773L595.714 591.2L564.017 609.628L532.211 628.055L500.514 646.482L471.104 664.91L501.712 647.137L532.538 664.91L533.736 664.255L502.91 646.482L502.474 646.7L502.91 646.482L533.518 628.709L564.344 646.482L565.542 645.828L534.716 628.055L565.324 610.282L596.15 628.055L597.348 627.401L566.522 609.628L597.13 591.855L627.956 609.628L629.154 608.973L598.329 591.2L628.937 573.427L659.763 591.2L660.961 590.546L630.135 572.773L661.832 554.346L692.44 536.573L723.266 554.346L724.464 553.692L693.638 535.918L725.336 517.491L755.944 499.718L786.769 517.491L787.968 516.837L757.142 499.064L788.839 480.637L820.427 462.209L819.447 462.863L850.273 480.637L851.471 479.982L820.645 462.209L851.253 444.436L882.079 462.209L883.277 461.555L852.451 443.782L884.149 425.355L914.757 407.582L945.583 425.355L946.781 424.7L915.955 406.927L947.652 388.5L978.26 370.727L1009.09 388.5L1010.28 387.846L979.458 370.073L1010.07 352.3L1040.89 370.073L1042.09 369.418L1011.26 351.645L1010.83 351.863L1011.26 351.645L1041.87 333.872L1072.7 351.645L1073.9 350.991L1043.07 333.218L1074.22 315.118L1073.68 315.445L1104.5 333.218L1105.7 332.564L1074.88 314.791L1105.49 297.018L1136.31 314.791L1137.51 314.137L1105.59 296.145L1135 277.718L1136.2 278.372L1167.03 296.145L1135.33 314.573L1103.42 333.109L1071.72 351.536L1040.02 369.964L1008.21 388.5L976.517 406.927L944.82 425.355L913.123 443.782L881.208 462.318L849.51 480.746L817.704 499.173L786.007 517.6L754.31 536.027L722.612 554.455L690.915 572.882L659 591.637L627.303 610.064L595.605 628.491L563.799 646.918L532.102 665.346L502.692 683.773L533.3 666L564.126 683.773L565.324 683.119L534.498 665.346L565.106 647.573L595.932 665.346L597.13 664.692L566.305 646.918L596.913 629.145L627.738 646.918L628.937 646.264L598.111 628.491L628.719 610.718L659.545 628.491L660.743 627.837L629.59 610.064L660.198 592.291L691.024 610.064L692.222 609.41L661.396 591.637L692.004 573.863L722.83 591.637L724.029 590.982L693.203 573.209L723.811 555.436L754.637 573.209L755.835 572.555L725.009 554.782L755.617 537.009L786.443 554.782L787.641 554.128L756.815 536.355L787.423 518.581L818.249 536.355L819.447 535.7L788.621 517.927L819.229 500.154L850.055 517.927L851.253 517.273L820.427 499.5L851.035 481.727L881.861 499.5L883.06 498.846L851.798 480.855L882.406 463.082L913.232 480.855L914.43 480.2L883.604 462.427L914.212 444.654L945.038 462.427L946.236 461.773L915.41 444L946.018 426.227L976.844 444L978.042 443.346L947.216 425.573L977.825 407.8L1008.65 425.573L1009.85 424.918L979.023 407.145L1009.63 389.372L1040.46 407.145L1041.65 406.491L1010.5 388.5L1041.11 370.727L1071.94 388.5L1073.13 387.846L1042.31 370.073L1072.92 352.3L1103.74 370.073L1104.94 369.418L1074.01 351.536L1104.61 333.763L1135.44 351.536L1136.64 350.882L1105.81 333.109L1136.42 315.336L1167.25 333.109L1168.44 332.455L1137.62 314.682L1167.03 296.254L1168.23 296.909L1199.05 314.682L1167.35 333.109L1135.55 351.536L1103.85 369.964L1071.94 388.5L1040.24 406.927L1008.54 425.355L976.844 443.782L945.147 462.209L913.45 480.637L881.752 499.064L849.619 517.818L817.922 536.246L786.225 554.673L754.528 573.1L722.83 591.528L691.133 609.955L659.436 628.382L627.412 647.028L595.605 665.455L563.908 683.991L534.498 702.418L533.3 701.764L501.385 683.337ZM661.178 775.692L629.263 757.264L597.348 738.837L565.324 720.301L534.498 702.527L565.106 684.754L595.932 702.527L597.13 701.873L566.305 683.991L596.913 666.218L627.738 683.991L628.937 683.337L598.002 665.564L628.61 647.791L659.436 665.564L660.634 664.91L629.808 647.137L660.416 629.363L691.242 647.137L692.44 646.482L661.614 628.709L692.222 610.936L723.048 628.709L724.246 628.055L693.42 610.282L724.029 592.509L754.854 610.282L756.053 609.628L725.227 591.855L755.835 574.082L786.661 591.855L787.859 591.2L757.033 573.427L787.641 555.654L818.467 573.427L819.665 572.773L788.839 555L819.447 537.227L850.273 555L851.471 554.346L820.21 536.246L850.818 518.472L881.643 536.246L882.842 535.591L852.016 517.818L882.624 500.045L913.45 517.818L914.648 517.164L883.822 499.391L914.43 481.618L945.256 499.391L946.454 498.737L915.628 480.964L946.236 463.191L977.062 480.964L978.26 480.309L947.434 462.536L978.042 444.763L1008.87 462.536L1010.07 461.882L979.241 444.109L1009.85 426.336L1040.67 444.109L1041.87 443.455L1011.05 425.682L1041.65 407.909L1072.48 425.682L1073.68 425.027L1042.42 406.927L1073.03 389.154L1103.85 406.927L1105.05 406.273L1074.22 388.5L1104.83 370.727L1135.66 388.5L1136.86 387.846L1106.03 370.073L1136.64 352.3L1167.46 370.073L1168.66 369.418L1137.84 351.645L1168.44 333.872L1199.27 351.645L1200.47 350.991L1169.64 333.218L1199.05 314.791L1200.25 315.445L1231.08 333.218L1199.38 351.645L1167.57 370.073L1135.55 388.5L1103.85 406.927L1072.15 425.355L1040.46 443.782L1008.65 462.318L976.953 480.746L945.256 499.173L913.559 517.6L881.752 536.027L850.055 554.455L818.358 572.882L786.661 591.309L754.963 609.737L723.266 628.164L691.569 646.591L659.871 665.019L627.63 683.991L595.932 702.418L566.522 720.846L597.13 703.073L627.956 720.846L629.154 720.192L598.329 702.418L628.937 684.645L659.763 702.418L660.961 701.764L630.026 683.991L660.634 666.218L691.46 683.991L692.658 683.337L661.832 665.564L692.44 647.791L723.266 665.564L724.464 664.91L693.638 647.137L724.246 629.363L755.072 647.137L756.27 646.482L725.444 628.709L756.053 610.936L786.878 628.709L788.077 628.055L757.251 610.282L787.859 592.509L818.685 610.282L819.883 609.628L789.057 591.855L819.665 574.082L850.491 591.855L851.689 591.2L820.863 573.427L851.471 555.654L882.297 573.427L883.495 572.773L852.669 555L883.277 537.227L914.103 555L915.301 554.346L884.476 536.573L915.083 518.8L945.909 536.573L947.108 535.918L916.282 518.145L946.89 500.372L977.716 518.145L978.914 517.491L948.088 499.718L978.696 481.945L1009.52 499.718L1010.72 499.064L979.241 480.855L1009.85 463.082L1040.67 480.855L1041.87 480.2L1011.05 462.427L1041.65 444.654L1072.48 462.427L1073.68 461.773L1042.85 444L1073.46 426.227L1104.29 444L1105.49 443.346L1074.66 425.573L1105.27 407.8L1136.09 425.573L1137.29 424.918L1106.47 407.145L1137.07 389.372L1167.9 407.145L1169.1 406.491L1137.94 388.5L1168.55 370.727L1199.27 388.5L1200.47 387.846L1169.64 370.073L1200.25 352.3L1231.08 370.073L1232.27 369.418L1201.45 351.536L1230.86 333.109L1232.06 333.763L1262.88 351.536L1231.19 369.964L1199.27 388.5L1167.57 406.927L1135.88 425.355L1104.18 443.782L1072.48 462.209L1040.78 480.637L1009.09 499.064L977.062 517.818L945.365 536.246L913.559 554.673L881.861 573.1L850.164 591.528L818.467 609.955L786.769 628.382L754.854 647.028L723.157 665.455L691.351 683.991L659.545 702.418L627.847 720.846L598.438 739.273L629.045 721.5L659.871 739.273L661.07 738.619L630.244 720.846L660.852 703.073L691.678 720.846L692.876 720.192L662.05 702.418L692.658 684.645L723.484 702.418L724.682 701.764L693.638 683.991L724.246 666.218L755.072 683.991L756.27 683.337L725.444 665.564L756.053 647.791L786.878 665.564L788.077 664.91L757.251 647.137L787.859 629.363L818.685 647.137L819.883 646.482L789.057 628.709L819.665 610.936L850.491 628.709L851.689 628.055L820.863 610.282L851.471 592.509L882.297 610.282L883.495 609.628L852.669 591.855L883.277 574.082L914.103 591.855L915.301 591.2L884.476 573.427L915.083 555.654L945.909 573.427L947.108 572.773L916.282 555L946.89 537.227L977.716 555L978.914 554.346L947.652 536.246L978.26 518.472L1009.09 536.246L1010.28 535.591L979.458 517.818L1010.07 500.045L1040.89 517.818L1042.09 517.164L1011.26 499.391L1041.87 481.618L1072.7 499.391L1073.9 498.737L1043.07 480.964L1073.68 463.191L1104.5 480.964L1105.7 480.309L1074.88 462.536L1105.49 444.763L1136.31 462.536L1137.51 461.882L1106.68 444.109L1137.29 426.336L1168.12 444.109L1169.32 443.455L1138.49 425.682L1169.1 407.909L1199.92 425.682L1201.12 425.027L1169.86 406.927L1200.47 389.154L1231.29 406.927L1232.49 406.273L1201.67 388.5L1232.27 370.727L1263.1 388.5L1264.3 387.846L1233.47 370.073L1262.88 351.645L1264.08 352.3L1294.91 370.073L1262.99 388.5L1231.19 406.927L1199.49 425.355L1167.79 443.782L1136.09 462.209L1104.4 480.637L1072.7 499.064L1041 517.491L1009.3 535.918L977.607 554.346L945.474 573.209L913.776 591.637L882.079 610.064L850.382 628.491L818.685 646.918L786.987 665.346L755.072 683.991L723.266 702.418L691.46 720.846L659.763 739.273L630.353 757.7L660.961 739.927L691.787 757.7L661.178 775.692ZM692.876 757.155L662.05 739.382L692.658 721.609L723.484 739.382L692.876 757.155ZM724.682 738.728L693.856 720.955L724.464 703.182L755.29 720.955L724.682 738.728ZM756.379 720.192L725.553 702.418L756.161 684.645L786.987 702.418L756.379 720.192ZM788.185 701.764L757.36 683.991L787.968 666.218L818.794 683.991L788.185 701.764ZM819.883 683.337L789.057 665.564L819.665 647.791L850.491 665.564L819.883 683.337ZM851.689 664.801L820.863 647.028L851.471 629.254L882.297 647.028L851.689 664.801ZM883.386 646.373L852.56 628.6L883.168 610.827L913.994 628.6L883.386 646.373ZM915.193 627.946L884.367 610.173L914.975 592.4L945.801 610.173L915.193 627.946ZM946.89 609.41L916.064 591.637L946.672 573.863L977.498 591.637L946.89 609.41ZM978.587 590.982L947.761 573.209L978.369 555.436L1009.2 573.209L978.587 590.982ZM1010.39 572.446L979.567 554.673L1010.18 536.9L1041 554.673L1010.39 572.446ZM1042.09 554.019L1011.26 536.246L1041.87 518.472L1072.7 536.246L1042.09 554.019ZM1073.9 535.591L1043.07 517.818L1073.68 500.045L1104.5 517.818L1073.9 535.591ZM1105.59 517.055L1074.77 499.282L1105.38 481.509L1136.2 499.282L1105.59 517.055ZM1137.4 498.628L1106.57 480.855L1137.18 463.082L1168.01 480.855L1137.4 498.628ZM1169.1 480.2L1138.27 462.427L1168.88 444.654L1199.71 462.427L1169.1 480.2ZM1200.9 461.664L1170.08 443.891L1200.69 426.118L1231.51 443.891L1200.9 461.664ZM1232.6 443.237L1201.78 425.464L1232.38 407.691L1263.21 425.464L1232.6 443.237ZM1264.41 424.7L1233.58 406.927L1264.19 389.154L1295.02 406.927L1264.41 424.7Z" fill="url(#paint0_radial_8_4)"/>
<defs>
<radialGradient id="paint0_radial_8_4" cx="0" cy="0" r="1" gradientUnits="userSpaceOnUse" gradientTransform="translate(648.07 371.287) rotate(1.84249) scale(410.986 227.951)">
<stop stop-color="#B240DF"/>
<stop offset="1" stop-color="#B240DF" stop-opacity="0"/>
</radialGradient>
</defs>
</svg>
